<svg width="57" height="60" viewBox="0 0 57 60" fill="none" xmlns="http://www.w3.org/2000/svg">
<path d="M14.0745 56.3899V40.2037L0 48.3552L14.0745 56.3899ZM29.0795 0.262002C28.498 -0.0873341 27.5674 -0.0873341 26.9859 0.262002L12.446 8.64628L40.4787 24.8326V57.3219L55.0184 48.9375C55.6001 48.5883 56.0653 47.773 56.0653 47.0743V15.866L29.0795 0.262002ZM13.0276 17.3799L0 24.8326L20.2393 36.5939V60L33.267 52.5473C33.8485 52.198 34.3138 51.3828 34.3138 50.684V28.4426L15.1213 17.38C14.5398 17.0307 13.6091 17.0306 13.0276 17.3799Z" fill="url(#paint0_linear_219_66558)"/>
<defs>
<linearGradient id="paint0_linear_219_66558" x1="28.0327" y1="1.40187e-07" x2="28.0327" y2="60" gradientUnits="userSpaceOnUse">
<stop offset="0.00480769" stop-color="#F9B500"/>
<stop offset="0.230769" stop-color="#EA5E9C"/>
<stop offset="0.745192" stop-color="#452667"/>
</linearGradient>
</defs>
</svg>
